<?xml version="1.0" encoding="utf-8"?>
<!-- Generator: Adobe Illustrator 24.3.0, SVG Export Plug-In . SVG Version: 6.00 Build 0)  -->
<svg version="1.1" id="logo" xmlns="http://www.w3.org/2000/svg" xmlns:xlink="http://www.w3.org/1999/xlink" x="0px" y="0px"
	 viewBox="0 0 400 200" style="enable-background:new 0 0 400 200;" xml:space="preserve">
<style type="text/css">
		.st0{fill:transparent;
			-webkit-animation: name 4s forwards 8s;
			-moz-animation: name 4s forwards 8s;
			-o-animation: name 4s forwards 8s;
			animation: name 4s forwards 8s;
	}
	.st1{fill:transparent;
			-webkit-animation: uñita 5s forwards 6s;
			-moz-animation: uñita 5s forwards 6s;
			-o-animation: uñita 5s forwards 6s;
			animation: uñita 5s forwards 6s;
	}
	.st2{fill:transparent;
			-webkit-animation: contorno 1s forwards 4s;
			-moz-animation: contorno 1s forwards 4s;
			-o-animation: contorno 1s forwards 4s;
			animation: contorno 1s forwards 4s;
	}
	.st3{fill:transparent;
			-webkit-animation: c2 1s forwards 5s;
			-moz-animation: c2 1s forwards 5s;
			-o-animation: c2e 1s forwards 5s;
			animation: c2 1s forwards 5s;
	}
	.st4{
		fill:none;
		stroke:#fff;
		stroke-width:4;
		stroke-dasharray: 580;
		stroke-dashoffset: 0;
		stroke-miterlimit:10;
		-webkit-animation: animacion 1s forwards;
		-moz-animation: animacion 1s forwards;
		-o-animation: animacion 1s forwards;
		animation: animacion 1s forwards;
		}


	@-webkit-keyframes animacion {
			0% {
				stroke-dashoffset: 580;
			}
			90% {
				stroke: #2c2c3f;
			}

			100% {
				stroke-dashoffset: 0;
				stroke: transparent;
			}
		}

		@-keyframes animacion {
			0% {
				stroke-dashoffset: 580;
			}
			90% {
				stroke: #38b9cf99;
			}

			100% {
				stroke-dashoffset: 0;
				stroke: transparent;
			}
		
		}
		@-webkit-keyframes c2 {
			from {
				fill: transparent;
			}

			to {
				fill: #fff;
			}
		}

		@-keyframes c2 {
			from {
				fill: transparent;
			}

			to {
				fill: #fff;
			}
		}
		@-webkit-keyframes contorno {
			from {
				fill: transparent;
			}

			to {
				fill: #fdadd5;
			}
		}

		@-keyframes contorno {
			from {
				fill: transparent;
			}

			to {
				fill: #fdadd5;
			}
		}
		@-webkit-keyframes name {
			from {
				fill: transparent;
			}

			to {
				fill: #38b9cf99;
			}
		}

		@-keyframes name {
			from {
				fill: transparent;
			}

			to {
				fill:#38b9cf99;
			}
		}
		@-webkit-keyframes uñita {
			from {
				fill: transparent;
			}

			to {
				fill: #fdadd5;
			}
		}

		@-keyframes uñita {
			from {
				fill: transparent;
			}

			to {
				fill: #fdadd5;
			}
		}

</style>
<g id="Texto">
	<g>
		<path class="st0" d="M163.95,123.99h-6.92l-2.19,4.56h-3.37l9.73-19.52h3.1l3.81,19.52h-3.37L163.95,123.99z M158.34,121.27h5.12
			l-1.34-7.67l-0.08-0.01L158.34,121.27z"/>
		<path class="st0" d="M174.59,115.87c0.57-0.67,1.24-1.19,2.01-1.55c0.77-0.36,1.63-0.54,2.57-0.54c0.9,0,1.66,0.21,2.29,0.64
			c0.62,0.42,1.05,1.06,1.28,1.91c0.56-0.8,1.25-1.42,2.05-1.87c0.8-0.45,1.7-0.68,2.7-0.68c1.41,0,2.48,0.51,3.19,1.54
			c0.71,1.02,0.92,2.55,0.62,4.59l-1.3,8.65h-3.26l1.3-8.66c0.19-1.32,0.11-2.23-0.23-2.72c-0.34-0.49-0.95-0.73-1.8-0.73
			c-0.68,0-1.29,0.19-1.83,0.58c-0.54,0.39-0.97,0.91-1.29,1.55l-0.07,0.58l-1.41,9.4h-3.26l1.3-8.66c0.19-1.27,0.1-2.16-0.25-2.68
			c-0.35-0.51-0.95-0.77-1.8-0.77c-0.64,0-1.22,0.14-1.72,0.41s-0.93,0.65-1.28,1.13l-1.58,10.57h-3.26l2.17-14.51h2.98
			L174.59,115.87z"/>
		<path class="st0" d="M196.91,128.55h-3.26l2.17-14.51h3.26L196.91,128.55z M199.61,110.49h-3.26l0.43-2.86h3.26L199.61,110.49z"/>
		<path class="st0" d="M201.1,121.5c0.36-2.4,1.13-4.28,2.32-5.66c1.19-1.38,2.69-2.06,4.51-2.06c0.84,0,1.56,0.19,2.17,0.58
			c0.6,0.39,1.09,0.94,1.45,1.66l0.62-1.97h2.71l-2.17,14.51c-0.29,1.94-1.09,3.4-2.37,4.38c-1.29,0.98-3,1.47-5.15,1.47
			c-0.69,0-1.43-0.1-2.23-0.3c-0.8-0.2-1.5-0.47-2.1-0.8l0.9-2.56c0.51,0.28,1.1,0.49,1.76,0.65c0.67,0.16,1.36,0.23,2.07,0.23
			c1.14,0,2.02-0.26,2.66-0.77c0.64-0.51,1.04-1.29,1.2-2.31l0.21-1.49c-0.54,0.58-1.14,1.02-1.8,1.32c-0.67,0.3-1.4,0.45-2.21,0.45
			c-1.71,0-2.98-0.65-3.81-1.96c-0.83-1.31-1.09-3.01-0.78-5.09L201.1,121.5z M204.31,121.78c-0.21,1.39-0.12,2.46,0.28,3.24
			c0.4,0.77,1.17,1.16,2.29,1.16c0.67,0,1.27-0.15,1.8-0.45c0.53-0.3,0.99-0.73,1.38-1.28l0.95-6.3c-0.21-0.54-0.54-0.95-0.98-1.25
			c-0.44-0.3-1-0.45-1.68-0.45c-1.07,0-1.96,0.47-2.65,1.42c-0.69,0.95-1.15,2.16-1.36,3.63L204.31,121.78z"/>
		<path class="st0" d="M216.62,121.16c0.33-2.24,1.18-4.04,2.55-5.38c1.37-1.34,3.1-2.01,5.18-2.01c1.99,0,3.5,0.7,4.52,2.09
			c1.02,1.39,1.37,3.16,1.06,5.3l-0.04,0.28c-0.35,2.26-1.21,4.06-2.57,5.39c-1.37,1.33-3.1,2-5.19,2c-1.99,0-3.5-0.69-4.52-2.08
			c-1.02-1.39-1.36-3.16-1.03-5.3L216.62,121.16z M219.83,121.44c-0.22,1.47-0.13,2.63,0.29,3.49c0.42,0.86,1.22,1.29,2.39,1.29
			c1.09,0,2-0.45,2.72-1.35c0.72-0.9,1.19-2.05,1.41-3.43l0.04-0.28c0.21-1.44,0.1-2.59-0.33-3.47c-0.43-0.87-1.23-1.31-2.39-1.31
			c-1.09,0-2,0.46-2.72,1.37c-0.72,0.91-1.18,2.05-1.37,3.41L219.83,121.44z"/>
		<path class="st0" d="M240.43,124.58c0.07-0.51-0.08-0.92-0.45-1.25c-0.37-0.32-1.13-0.61-2.29-0.87c-1.65-0.35-2.89-0.86-3.7-1.54
			c-0.81-0.68-1.14-1.59-0.98-2.74c0.17-1.26,0.83-2.31,1.97-3.15c1.14-0.84,2.56-1.26,4.25-1.26c1.67,0,2.99,0.45,3.96,1.34
			c0.97,0.89,1.34,1.96,1.13,3.2l-0.03,0.08h-3.14c0.08-0.62-0.08-1.14-0.48-1.56c-0.4-0.42-0.99-0.63-1.78-0.63
			c-0.75,0-1.37,0.18-1.85,0.54c-0.48,0.36-0.76,0.8-0.83,1.31c-0.07,0.51,0.06,0.91,0.41,1.19c0.34,0.29,1.1,0.54,2.27,0.78
			c1.73,0.36,3,0.88,3.8,1.58c0.8,0.69,1.12,1.62,0.96,2.78c-0.19,1.36-0.87,2.44-2.05,3.24c-1.18,0.8-2.66,1.2-4.44,1.2
			c-1.81,0-3.2-0.49-4.2-1.47c-0.99-0.98-1.38-2.08-1.15-3.31l0.03-0.08h3.04c-0.08,0.84,0.14,1.45,0.66,1.84
			c0.52,0.38,1.19,0.58,2.01,0.58c0.8,0,1.47-0.17,1.98-0.5C240.06,125.55,240.36,125.12,240.43,124.58z"/>
		<path class="st0" d="M259.04,126.23c0.71,0,1.37-0.23,1.97-0.7c0.6-0.47,0.95-1.06,1.06-1.76h2.94l0.03,0.08
			c-0.18,1.41-0.89,2.6-2.14,3.55c-1.25,0.96-2.66,1.43-4.24,1.43c-2.01,0-3.5-0.7-4.47-2.09c-0.97-1.39-1.3-3.13-0.99-5.2
			l0.08-0.47c0.32-2.17,1.15-3.93,2.47-5.28c1.33-1.34,3.04-2.02,5.14-2.02c1.63,0,2.91,0.51,3.84,1.54c0.93,1.03,1.27,2.32,1,3.86
			l-0.03,0.07h-2.96c0.12-0.83-0.03-1.52-0.43-2.05c-0.4-0.54-1.01-0.8-1.81-0.8c-1.11,0-2,0.46-2.68,1.37s-1.11,2.02-1.29,3.31
			l-0.08,0.47c-0.21,1.4-0.12,2.54,0.25,3.4C257.07,125.8,257.85,126.23,259.04,126.23z"/>
		<path class="st0" d="M267.57,121.16c0.33-2.24,1.18-4.04,2.55-5.38c1.37-1.34,3.1-2.01,5.18-2.01c1.99,0,3.5,0.7,4.52,2.09
			c1.02,1.39,1.37,3.16,1.06,5.3l-0.04,0.28c-0.35,2.26-1.21,4.06-2.57,5.39c-1.37,1.33-3.1,2-5.19,2c-1.99,0-3.5-0.69-4.52-2.08
			c-1.02-1.39-1.36-3.16-1.03-5.3L267.57,121.16z M270.79,121.44c-0.22,1.47-0.13,2.63,0.29,3.49c0.42,0.86,1.22,1.29,2.39,1.29
			c1.09,0,2-0.45,2.72-1.35c0.72-0.9,1.19-2.05,1.41-3.43l0.04-0.28c0.21-1.44,0.11-2.59-0.33-3.47c-0.43-0.87-1.23-1.31-2.39-1.31
			c-1.09,0-2,0.46-2.72,1.37c-0.72,0.91-1.18,2.05-1.37,3.41L270.79,121.44z"/>
		<path class="st0" d="M287.62,116.05c0.59-0.72,1.27-1.28,2.05-1.68c0.78-0.4,1.62-0.6,2.52-0.6c1.46,0,2.55,0.47,3.28,1.41
			c0.73,0.94,0.95,2.39,0.66,4.34l-1.35,9.02h-3.26l1.35-9c0.17-1.17,0.07-1.98-0.29-2.43c-0.36-0.45-0.99-0.68-1.9-0.68
			c-0.68,0-1.29,0.14-1.84,0.41c-0.55,0.27-1.02,0.65-1.42,1.15l-1.58,10.55h-3.26l2.17-14.51h2.98L287.62,116.05z"/>
		<path class="st0" d="M318.74,121.78c-0.34,2.19-1.09,3.91-2.26,5.17c-1.17,1.26-2.64,1.88-4.43,1.88c-0.8,0-1.5-0.15-2.1-0.46
			c-0.6-0.31-1.08-0.76-1.46-1.36l-1.06,7.12h-3.26l3-20.09h2.75l0.05,1.82c0.56-0.68,1.2-1.2,1.91-1.56
			c0.71-0.36,1.5-0.54,2.37-0.54c1.72,0,2.98,0.72,3.79,2.15c0.81,1.43,1.06,3.29,0.72,5.57L318.74,121.78z M315.53,121.5
			c0.22-1.54,0.13-2.76-0.29-3.68c-0.42-0.92-1.18-1.37-2.3-1.37c-0.65,0-1.24,0.15-1.76,0.45c-0.52,0.3-0.98,0.71-1.36,1.24
			l-0.98,6.52c0.21,0.51,0.54,0.9,0.98,1.17c0.44,0.27,1,0.41,1.69,0.41c1.06,0,1.94-0.42,2.64-1.25s1.14-1.9,1.35-3.2L315.53,121.5
			z"/>
		<path class="st0" d="M329.3,128.55c-0.06-0.35-0.11-0.7-0.13-1.05c-0.02-0.35-0.02-0.71,0.01-1.07c-0.55,0.68-1.22,1.25-2.02,1.71
			c-0.8,0.46-1.65,0.69-2.55,0.69c-1.46,0-2.55-0.39-3.27-1.18c-0.72-0.79-0.98-1.85-0.77-3.19c0.21-1.46,0.93-2.56,2.14-3.32
			c1.21-0.76,2.84-1.13,4.87-1.13h2.53l0.19-1.27c0.12-0.79-0.01-1.39-0.39-1.8c-0.38-0.42-0.99-0.62-1.84-0.62
			c-0.71,0-1.33,0.18-1.84,0.54c-0.51,0.36-0.8,0.81-0.87,1.37l-3.12,0.01l-0.03-0.08c0.12-1.19,0.78-2.21,1.98-3.08
			c1.21-0.86,2.69-1.29,4.45-1.29c1.64,0,2.92,0.43,3.86,1.3c0.93,0.87,1.28,2.1,1.05,3.69l-0.98,6.45
			c-0.09,0.63-0.13,1.21-0.13,1.74c0,0.54,0.05,1.07,0.15,1.6H329.3z M325.67,126.22c0.79,0,1.55-0.21,2.28-0.63
			c0.73-0.42,1.25-0.89,1.54-1.42l0.32-2.12h-2.59c-0.91,0-1.68,0.24-2.31,0.71c-0.63,0.47-0.99,1.02-1.09,1.65
			c-0.09,0.57,0.02,1.02,0.33,1.33C324.48,126.06,324.98,126.22,325.67,126.22z"/>
		<path class="st0" d="M342.38,110.52l-0.54,3.53h2.6l-0.36,2.41h-2.6l-1.19,8.02c-0.11,0.63-0.05,1.06,0.17,1.3
			c0.22,0.24,0.55,0.36,0.99,0.36c0.17,0,0.34-0.02,0.52-0.05c0.18-0.03,0.35-0.07,0.51-0.13l-0.01,2.39
			c-0.29,0.15-0.64,0.27-1.03,0.36c-0.39,0.08-0.8,0.13-1.21,0.13c-1.16,0-2.04-0.36-2.63-1.07c-0.59-0.71-0.78-1.81-0.56-3.29
			l1.19-8.02h-2.21l0.36-2.41h2.21l0.54-3.53H342.38z"/>
		<path class="st0" d="M353.64,128.55c-0.06-0.35-0.11-0.7-0.13-1.05c-0.02-0.35-0.02-0.71,0.01-1.07
			c-0.55,0.68-1.22,1.25-2.02,1.71c-0.8,0.46-1.65,0.69-2.55,0.69c-1.46,0-2.55-0.39-3.27-1.18c-0.72-0.79-0.98-1.85-0.77-3.19
			c0.21-1.46,0.93-2.56,2.14-3.32c1.21-0.76,2.84-1.13,4.87-1.13h2.53l0.19-1.27c0.12-0.79-0.01-1.39-0.39-1.8
			c-0.38-0.42-0.99-0.62-1.84-0.62c-0.71,0-1.33,0.18-1.84,0.54c-0.51,0.36-0.8,0.81-0.87,1.37l-3.12,0.01l-0.03-0.08
			c0.12-1.19,0.78-2.21,1.98-3.08c1.21-0.86,2.69-1.29,4.45-1.29c1.64,0,2.92,0.43,3.86,1.3c0.93,0.87,1.28,2.1,1.05,3.69
			l-0.98,6.45c-0.09,0.63-0.13,1.21-0.13,1.74c0,0.54,0.05,1.07,0.15,1.6H353.64z M350.01,126.22c0.79,0,1.55-0.21,2.28-0.63
			c0.73-0.42,1.25-0.89,1.54-1.42l0.32-2.12h-2.59c-0.91,0-1.68,0.24-2.31,0.71c-0.63,0.47-0.99,1.02-1.09,1.65
			c-0.09,0.57,0.02,1.02,0.33,1.33C348.82,126.06,349.32,126.22,350.01,126.22z"/>
		<path class="st0" d="M368.6,124.58c0.07-0.51-0.08-0.92-0.45-1.25c-0.37-0.32-1.13-0.61-2.29-0.87c-1.65-0.35-2.89-0.86-3.7-1.54
			c-0.81-0.68-1.14-1.59-0.98-2.74c0.17-1.26,0.83-2.31,1.97-3.15c1.14-0.84,2.56-1.26,4.25-1.26c1.67,0,2.99,0.45,3.96,1.34
			c0.97,0.89,1.34,1.96,1.13,3.2l-0.03,0.08h-3.14c0.08-0.62-0.08-1.14-0.48-1.56c-0.4-0.42-0.99-0.63-1.78-0.63
			c-0.75,0-1.37,0.18-1.85,0.54c-0.48,0.36-0.76,0.8-0.83,1.31c-0.07,0.51,0.06,0.91,0.41,1.19c0.34,0.29,1.1,0.54,2.27,0.78
			c1.73,0.36,3,0.88,3.8,1.58c0.8,0.69,1.12,1.62,0.96,2.78c-0.19,1.36-0.87,2.44-2.05,3.24s-2.66,1.2-4.44,1.2
			c-1.81,0-3.2-0.49-4.2-1.47c-0.99-0.98-1.38-2.08-1.15-3.31l0.03-0.08h3.04c-0.08,0.84,0.14,1.45,0.66,1.84
			c0.52,0.38,1.19,0.58,2.01,0.58c0.8,0,1.47-0.17,1.98-0.5C368.24,125.55,368.53,125.12,368.6,124.58z"/>
	</g>
</g>
<g id="Contorno">
	<path class="st1" d="M43.73,91.52c-5.24,0-12.5-2.47-17.32-14.22c-4.18-10.27-4.09-24.34,0.2-30.72c2.13-3.17,4.78-3.65,6.17-3.65
		h0c0.4,0,0.81,0.04,1.22,0.11l0.08,0.02c9.52,1.82,20.14,19.29,22.17,22.77c0.03,0.05,0.06,0.11,0.09,0.16
		c3.92,7.57,3.29,13.03,2.07,16.27c-1.37,3.65-4.24,6.48-8.08,7.97C48.12,91.09,45.9,91.52,43.73,91.52z"/>
	<path class="st1" d="M104.88,71.4c-1.58,0-3.19-0.36-4.79-1.07c-9.39-3.72-14.69-11.8-14.55-22.17l0-0.06
		c0.35-11.44,6.77-22.82,14.62-25.91l0.08-0.03c1.11-0.41,2.23-0.62,3.33-0.62c2.66,0,6.48,1.2,9.58,6.94
		c2.79,5.1,4.55,13.06,4.6,20.77c0.02,8.79-1.88,15.36-5.51,19C110.18,70.31,107.64,71.4,104.88,71.4z"/>
	<path class="st1" d="M128.25,91.52c-2.17,0-4.39-0.43-6.59-1.28c-3.84-1.5-6.71-4.33-8.08-7.98c-1.22-3.25-1.86-8.71,2.07-16.28
		c0.02-0.05,0.05-0.1,0.08-0.15c2.03-3.48,12.62-20.91,22.18-22.77l0.07-0.01c0.4-0.07,0.81-0.11,1.21-0.11h0
		c1.39,0,4.04,0.48,6.17,3.65c4.29,6.38,4.38,20.44,0.2,30.71C140.74,89.06,133.49,91.52,128.25,91.52z"/>
	<path class="st1" d="M84.74,160.83c-14.82,0-27.56-5-35.18-13.89c-6.42-7.48-8.76-16.96-6.77-27.41
		c4.58-24.06,24.07-42.23,44.39-41.38c20.23,0.6,39.68,18.6,44.26,40.97c1.9,9.28-0.14,18.03-5.9,25.29
		c-7.88,9.94-21.87,15.91-38.38,16.37C86.34,160.82,85.54,160.83,84.74,160.83z"/>
	<path class="st0" d="M67.09,114.83C67.09,114.83,67.09,114.83,67.09,114.83"/>
	<g>
		<g>
			<g>
				<path class="st1" d="M107.2,141.85c-2.47-0.31-5.87-6.8-7.82-10.51c-0.55-1.04-0.62-2.39-0.73-3.53
					c-0.18-1.91-0.22-3.83-0.23-5.75c-0.02-4.57,0.18-9.15,0.59-13.7c0.14-1.5,0.26-3.02,0.56-4.5c0.08-0.4,0.16-0.75,0.37-1.09
					c1-1.67,1.99-3.22,2.75-5.03c0.56-1.32,1.36-3.11,1.01-4.58c-0.56-2.34-8.52-5.38-8.7-5.45c0,0,0,0,0,0
					c-0.6-2.1-1.45-3.72-1.45-3.72L91.25,87c0.02,0.04,0.04,0.08,0.05,0.12l-0.13-0.02l0.08-0.1c-0.49-1.09-0.96-1.82-1.01-1.77
					c-1.55,1.65-2.16,3.3-2.68,5.98c-0.52,2.68,2.78,16.59-10.92,24.52c-14.53,9.79-11.03,28.13-11.03,28.13
					c-13.78-5.72-7.7-25.07-6.16-35.88c0.31-2.19,0.65-5.92-1.99-3.64c-1.17,1-2.23,3.47-2.57,4.95c-2.19,9.49-4.2,20.96-1.12,30.46
					c0.94,2.91,2.54,5.66,4.91,7.59c4.94,4.01,12.89,3.18,18.86,3.16c2.8-0.01,20.24,0.78,20.83-3.55c0.51-3.7-8.14-4.13-11.18-4.17
					h-1.03c0,0,0.39-0.01,1.03,0h0.67c6.73-1.74,7.75-6.32,7.14-10.37c0.85,4.81,5.69,13,7.24,13.15
					c4.64,0.93,13.29-0.77,13.29-0.93C115.54,140.15,109.67,142.16,107.2,141.85z"/>
			</g>
		</g>
		<g>
			<g>
				<path class="st1" d="M58.69,147.33c4.94,4.01,12.89,3.18,18.86,3.16c2.8-0.01,20.24,0.78,20.83-3.55
					c0.51-3.7-8.14-4.13-11.18-4.17h-1.03c0,0,0.39-0.01,1.03,0h0.67c6.73-1.74,7.75-6.32,7.14-10.37c0.85,4.81,5.69,13,7.24,13.15
					c4.64,0.93,13.29-0.77,13.29-0.93c0-4.48-5.87-2.47-8.35-2.78s-5.87-6.8-7.82-10.51c-0.55-1.04-0.62-2.39-0.73-3.53
					c-0.18-1.91-0.22-3.83-0.23-5.75c-0.02-4.57,0.18-9.15,0.59-13.7c0.14-1.5,0.26-3.02,0.56-4.5c0.08-0.4,0.16-0.75,0.37-1.09
					c1-1.67,1.99-3.22,2.75-5.03c0.56-1.32,1.36-3.11,1.01-4.58c-0.56-2.34-8.52-5.38-8.7-5.45c0,0,0,0,0,0
					c-0.6-2.1-1.45-3.72-1.45-3.72L91.25,87c0.02,0.04,0.04,0.08,0.05,0.12l-0.13-0.02l0.08-0.1c-0.49-1.09-0.96-1.82-1.01-1.77
					c-1.55,1.65-2.16,3.3-2.68,5.98c-0.52,2.68,2.78,16.59-10.92,24.52c-14.53,9.79-11.03,28.13-11.03,28.13
					c-13.78-5.72-7.7-25.07-6.16-35.88c0.31-2.19,0.65-5.92-1.99-3.64c-1.17,1-2.23,3.47-2.57,4.95c-2.19,9.49-4.2,20.96-1.12,30.46
					"/>
			</g>
		</g>
	</g>
	<path class="st1" d="M65.42,71.4c-2.76,0-5.31-1.09-7.36-3.15c-3.63-3.64-5.53-10.2-5.51-18.99c0.04-7.71,1.8-15.67,4.6-20.78
		c3.09-5.73,6.91-6.93,9.57-6.93h0c1.1,0,2.23,0.21,3.34,0.62l0.08,0.03c7.84,3.09,14.26,14.47,14.61,25.91l0,0.08
		c0.14,10.35-5.16,18.43-14.55,22.15C68.61,71.04,67,71.4,65.42,71.4z"/>
</g>
<g id="isotipo_1_">
	<path class="st0" d="M32.79,46.47c0.19,0,0.39,0.02,0.59,0.05c6.01,1.15,14.42,11.83,19.82,21.09c5.11,9.86,2.17,16.87-4.15,19.33
		c-1.67,0.64-3.47,1.04-5.32,1.04c-5,0-10.32-2.94-14.05-12.03C24.69,63.68,26.79,46.47,32.79,46.47"/>
	<path class="st2" d="M43.73,89.56c-4.64,0-11.09-2.26-15.5-13c-3.9-9.58-3.89-23.08,0.01-28.88c1.54-2.3,3.32-2.78,4.54-2.78h0
		c0.29,0,0.58,0.03,0.87,0.08c6.79,1.3,15.5,12.58,20.9,21.84l0.04,0.07c3.59,6.93,3.06,11.81,1.97,14.68
		c-1.17,3.12-3.64,5.54-6.95,6.83C47.64,89.17,45.66,89.56,43.73,89.56z M32.79,48.04c-0.67,0-1.32,0.47-1.94,1.39
		c-2.96,4.4-3.47,16.69,0.29,25.94c2.96,7.22,7.32,11.05,12.59,11.05c1.54,0,3.14-0.32,4.76-0.94c2.49-0.97,4.27-2.71,5.14-5.01
		c1.23-3.26,0.6-7.44-1.8-12.09c-5.29-9.07-13.41-19.28-18.74-20.3C32.99,48.05,32.89,48.04,32.79,48.04z"/>
	<path class="st3" d="M32.79,44.51C32.79,44.51,32.79,44.51,32.79,44.51c-1.32,0-3.23,0.51-4.87,2.95
		c-3.97,5.9-3.99,19.56-0.05,29.24c4.49,10.95,11.11,13.25,15.86,13.25c1.98,0,4-0.4,6.03-1.18c3.42-1.33,5.96-3.84,7.18-7.06
		c1.11-2.95,1.67-7.94-1.99-15c-0.01-0.03-0.03-0.06-0.05-0.09c-5.44-9.33-14.25-20.7-21.15-22.03c-0.01,0-0.01,0-0.02,0
		C33.41,44.54,33.1,44.51,32.79,44.51L32.79,44.51z"/>
	<path class="st2" d="M43.73,91.52c-5.24,0-12.5-2.47-17.32-14.22c-4.18-10.27-4.09-24.34,0.2-30.72c2.13-3.17,4.78-3.65,6.17-3.65
		h0c0.4,0,0.81,0.04,1.22,0.11l0.08,0.02c9.52,1.82,20.14,19.29,22.17,22.77c0.03,0.05,0.06,0.11,0.09,0.16
		c3.92,7.57,3.29,13.03,2.07,16.27c-1.37,3.65-4.24,6.48-8.08,7.97C48.12,91.09,45.9,91.52,43.73,91.52z M32.79,46.08
		c-1.36,0-2.56,0.76-3.57,2.26c-3.65,5.43-3.6,18.67,0.1,27.77c3.29,8.03,8.28,12.27,14.41,12.27c1.78,0,3.62-0.36,5.46-1.07
		c2.99-1.17,5.22-3.35,6.27-6.15c1-2.65,1.48-7.18-1.92-13.72c-5.7-9.78-14.12-20.15-20.1-21.29C33.23,46.1,33,46.08,32.79,46.08
		L32.79,46.08z"/>
	<path class="st0" d="M103.57,25.08c2.4,0,4.61,1.64,6.46,5.08c2.35,4.3,4.13,11.59,4.17,19.11c0.03,12.92-4.23,18.59-9.33,18.59
		c-1.11,0-2.26-0.27-3.42-0.79c-6.52-2.56-12.53-8.47-12.38-18.86c0.32-10.45,6.1-20.25,12.38-22.73
		C102.18,25.22,102.88,25.08,103.57,25.08"/>
	<path class="st2" d="M104.88,69.43c-1.32,0-2.67-0.31-4.03-0.91C96.74,66.9,87.32,61.7,87.5,48.19
		c0.33-10.74,6.2-21.34,13.38-24.17c0.93-0.34,1.82-0.51,2.69-0.51l0,0c2.13,0,5.22,1.03,7.85,5.91c2.65,4.84,4.32,12.45,4.36,19.85
		c0.02,8.26-1.68,14.34-4.93,17.6C109.17,68.55,107.1,69.43,104.88,69.43z M103.57,26.65c-0.5,0-1.02,0.1-1.57,0.3
		C96.81,29,90.97,37.74,90.65,48.26c-0.16,11.56,7.91,15.98,11.38,17.35l0.07,0.03c2.47,1.12,4.74,0.79,6.51-0.99
		c2.61-2.62,4.04-8.08,4.02-15.37c-0.04-6.8-1.6-14.01-3.98-18.36C107.13,28.08,105.42,26.65,103.57,26.65L103.57,26.65z"/>
	<path class="st3" d="M103.57,23.12c-0.92,0-1.86,0.18-2.79,0.52c-0.01,0-0.03,0.01-0.04,0.02c-7.31,2.88-13.29,13.64-13.62,24.5
		c0,0.01,0,0.02,0,0.03c-0.14,9.7,4.81,17.24,13.58,20.7c1.4,0.63,2.81,0.94,4.18,0.94c2.34,0,4.5-0.93,6.25-2.68
		c3.33-3.33,5.07-9.52,5.05-17.88c-0.04-7.46-1.73-15.14-4.41-20.03C109.04,24.18,105.81,23.12,103.57,23.12
		C103.57,23.12,103.57,23.12,103.57,23.12L103.57,23.12z"/>
	<path class="st2" d="M104.88,71.4c-1.58,0-3.19-0.36-4.79-1.07c-9.39-3.72-14.69-11.8-14.55-22.17l0-0.06
		c0.35-11.44,6.77-22.82,14.62-25.91l0.08-0.03c1.11-0.41,2.23-0.62,3.33-0.62c2.66,0,6.48,1.2,9.58,6.94
		c2.79,5.1,4.55,13.06,4.6,20.77c0.02,8.79-1.88,15.36-5.51,19C110.18,70.31,107.64,71.4,104.88,71.4z M103.57,24.69
		c-0.73,0-1.49,0.14-2.25,0.42C94.55,27.79,89,37.93,88.69,48.2c-0.13,9.01,4.46,16.01,12.59,19.22l0.06,0.03
		c3.19,1.43,6.35,0.91,8.67-1.41c3.02-3.03,4.61-8.83,4.59-16.77c-0.04-7.21-1.65-14.6-4.21-19.28
		C108.52,26.52,106.16,24.69,103.57,24.69z"/>
	<path class="st0" d="M139.19,46.47c6,0,8.1,17.21,3.1,29.49c-3.73,9.08-9.04,12.03-14.05,12.03c-1.85,0-3.65-0.4-5.32-1.04
		c-6.31-2.46-9.26-9.47-4.15-19.33c5.4-9.26,13.82-19.94,19.82-21.09C138.8,46.49,139,46.47,139.19,46.47"/>
	<path class="st2" d="M128.25,89.56c-1.93,0-3.91-0.39-5.89-1.15c-3.31-1.29-5.78-3.72-6.95-6.84c-1.08-2.87-1.62-7.75,1.97-14.68
		l0.04-0.07c5.4-9.26,14.11-20.54,20.89-21.84c0.31-0.06,0.6-0.08,0.89-0.08h0c1.22,0,3,0.48,4.54,2.78
		c3.9,5.8,3.91,19.3,0.01,28.88C139.34,87.3,132.89,89.56,128.25,89.56z M120.15,68.37c-2.41,4.66-3.03,8.84-1.8,12.09
		c0.87,2.31,2.65,4.04,5.15,5.01c1.61,0.62,3.21,0.94,4.75,0.94c5.27,0,9.63-3.82,12.59-11.05c3.76-9.25,3.25-21.54,0.29-25.93
		c-0.62-0.92-1.27-1.39-1.94-1.39c-0.1,0-0.2,0.01-0.31,0.03C133.56,49.09,125.45,59.3,120.15,68.37z"/>
	<path class="st3" d="M139.19,44.51c-0.31,0-0.63,0.03-0.94,0.09c-0.01,0-0.01,0-0.02,0c-6.9,1.32-15.71,12.69-21.15,22.03
		c-0.02,0.03-0.03,0.06-0.05,0.09c-3.66,7.06-3.1,12.05-1.99,15c1.21,3.22,3.76,5.73,7.18,7.06c2.02,0.78,4.05,1.18,6.03,1.18
		c4.76,0,11.37-2.3,15.86-13.25c3.94-9.68,3.92-23.35-0.05-29.24C142.42,45.02,140.51,44.51,139.19,44.51
		C139.19,44.51,139.19,44.51,139.19,44.51L139.19,44.51z"/>
	<path class="st2" d="M128.25,91.52c-2.17,0-4.39-0.43-6.59-1.28c-3.84-1.5-6.71-4.33-8.08-7.98c-1.22-3.25-1.86-8.71,2.07-16.28
		c0.02-0.05,0.05-0.1,0.08-0.15c2.03-3.48,12.62-20.91,22.18-22.77l0.07-0.01c0.4-0.07,0.81-0.11,1.21-0.11h0
		c1.39,0,4.04,0.48,6.17,3.65c4.29,6.38,4.38,20.44,0.2,30.71C140.74,89.06,133.49,91.52,128.25,91.52z M138.53,46.14L138.53,46.14
		c-5.98,1.15-14.4,11.51-20.09,21.28c-3.4,6.56-2.92,11.09-1.93,13.74c1.05,2.8,3.28,4.99,6.28,6.15c1.84,0.71,3.67,1.07,5.46,1.07
		c6.13,0,11.12-4.24,14.41-12.27c3.7-9.1,3.75-22.34,0.1-27.77c-1.01-1.5-2.21-2.26-3.57-2.26l0-1.57v1.57
		C138.97,46.08,138.75,46.1,138.53,46.14L138.53,46.14z"/>
	<path class="st0" d="M129.89,119.44c4.49,21.95-14.66,38.99-42.78,39.78c-28.13,1.01-47.27-15.84-42.78-39.39
		c4.49-23.55,23.64-40.91,42.78-40.1C106.26,80.29,125.41,97.5,129.89,119.44z"/>
	<path class="st2" d="M84.74,160.83c-14.82,0-27.56-5-35.18-13.89c-6.42-7.48-8.76-16.96-6.77-27.41
		c4.58-24.06,24.07-42.23,44.39-41.38c20.23,0.6,39.68,18.6,44.26,40.97c1.9,9.28-0.14,18.03-5.9,25.29
		c-7.88,9.94-21.87,15.91-38.38,16.37C86.34,160.82,85.54,160.83,84.74,160.83z M85.81,81.27c-18.35,0-35.73,16.79-39.94,38.85
		c-1.81,9.48,0.29,18.04,6.07,24.78c7.41,8.64,20.21,13.29,35.11,12.75c15.59-0.44,28.71-5.97,36.02-15.18
		c5.16-6.51,6.99-14.36,5.28-22.71l0,0c-4.3-21-22.43-37.89-41.29-38.46C86.65,81.28,86.22,81.27,85.81,81.27z"/>
	<g>
		<path class="st0" d="M58.03,146.76h-1.89C56.14,146.76,56.85,146.74,58.03,146.76z"/>
	</g>
	<g>
		<g>
			<g>
				<path class="st0" d="M58.03,146.76c-0.08,0-0.15,0.02-0.24,0.08c-0.09,0.06-0.2,0.15-0.36,0.27c-0.31,0.24-0.82,0.48-1.29,0.63
					l-0.02-1.96c0.24,0.08,0.48,0.17,0.71,0.28c0.23,0.11,0.44,0.23,0.6,0.35c0.16,0.12,0.27,0.22,0.36,0.27
					C57.88,146.74,57.96,146.76,58.03,146.76z"/>
			</g>
			<g>
				<path class="st0" d="M58.03,146.76c-0.24,0-0.48,0.02-0.71,0.08c-0.23,0.06-0.43,0.15-0.58,0.27c-0.16,0.12-0.26,0.25-0.35,0.35
					c-0.09,0.11-0.16,0.2-0.23,0.28l-0.02-1.96c0.16,0.16,0.28,0.39,0.6,0.63c0.16,0.12,0.36,0.21,0.59,0.27
					C57.55,146.74,57.79,146.76,58.03,146.76z"/>
			</g>
		</g>
		<g>
			<g>
				<path class="st0" d="M58.03,146.76c-0.08,0-0.15,0.02-0.24,0.08c-0.09,0.06-0.2,0.15-0.36,0.27c-0.31,0.24-0.82,0.48-1.29,0.63
					l-0.02-1.96c0.24,0.08,0.48,0.17,0.71,0.28c0.23,0.11,0.44,0.23,0.6,0.35c0.16,0.12,0.27,0.22,0.36,0.27
					C57.88,146.74,57.96,146.76,58.03,146.76z"/>
			</g>
			<g>
				<path class="st0" d="M58.03,146.76c-0.24,0-0.48,0.02-0.71,0.08c-0.23,0.06-0.43,0.15-0.58,0.27c-0.16,0.12-0.26,0.25-0.35,0.35
					c-0.09,0.11-0.16,0.2-0.23,0.28l-0.02-1.96c0.16,0.16,0.28,0.39,0.6,0.63c0.16,0.12,0.36,0.21,0.59,0.27
					C57.55,146.74,57.79,146.76,58.03,146.76z"/>
			</g>
		</g>
	</g>
	<path class="st0" d="M67.09,114.83C67.09,114.83,67.09,114.83,67.09,114.83"/>
	<g>
		<g>
			<g>
				<path class="st3" d="M107.2,141.85c-2.47-0.31-5.87-6.8-7.82-10.51c-0.55-1.04-0.62-2.39-0.73-3.53
					c-0.18-1.91-0.22-3.83-0.23-5.75c-0.02-4.57,0.18-9.15,0.59-13.7c0.14-1.5,0.26-3.02,0.56-4.5c0.08-0.4,0.16-0.75,0.37-1.09
					c1-1.67,1.99-3.22,2.75-5.03c0.56-1.32,1.36-3.11,1.01-4.58c-0.56-2.34-8.52-5.38-8.7-5.45c0,0,0,0,0,0
					c-0.6-2.1-1.45-3.72-1.45-3.72L91.25,87c0.02,0.04,0.04,0.08,0.05,0.12l-0.13-0.02l0.08-0.1c-0.49-1.09-0.96-1.82-1.01-1.77
					c-1.55,1.65-2.16,3.3-2.68,5.98c-0.52,2.68,2.78,16.59-10.92,24.52c-14.53,9.79-11.03,28.13-11.03,28.13
					c-13.78-5.72-7.7-25.07-6.16-35.88c0.31-2.19,0.65-5.92-1.99-3.64c-1.17,1-2.23,3.47-2.57,4.95c-2.19,9.49-4.2,20.96-1.12,30.46
					c0.94,2.91,2.54,5.66,4.91,7.59c4.94,4.01,12.89,3.18,18.86,3.16c2.8-0.01,20.24,0.78,20.83-3.55c0.51-3.7-8.14-4.13-11.18-4.17
					h-1.03c0,0,0.39-0.01,1.03,0h0.67c6.73-1.74,7.75-6.32,7.14-10.37c0.85,4.81,5.69,13,7.24,13.15
					c4.64,0.93,13.29-0.77,13.29-0.93C115.54,140.15,109.67,142.16,107.2,141.85z"/>
			</g>
			<g>
				<path class="st3" d="M94.99,132.26l-2.61-7.11c0.07,0.12,2.06,3.44,2.63,7.22C95,132.34,95,132.3,94.99,132.26z"/>
			</g>
		</g>
		<g>
			<g>
				<path class="st3" d="M107.2,141.85c-2.47-0.31-5.87-6.8-7.82-10.51c-0.55-1.04-0.62-2.39-0.73-3.53
					c-0.18-1.91-0.22-3.83-0.23-5.75c-0.02-4.57,0.18-9.15,0.59-13.7c0.14-1.5,0.26-3.02,0.56-4.5c0.08-0.4,0.16-0.75,0.37-1.09
					c1-1.67,1.99-3.22,2.75-5.03c0.56-1.32,1.36-3.11,1.01-4.58c-0.56-2.34-8.52-5.38-8.7-5.45c0,0,0,0,0,0
					c-0.6-2.1-1.45-3.72-1.45-3.72L91.25,87c0.02,0.04,0.04,0.08,0.05,0.12l-0.13-0.02l0.08-0.1c-0.49-1.09-0.96-1.82-1.01-1.77
					c-1.55,1.65-2.16,3.3-2.68,5.98c-0.52,2.68,2.78,16.59-10.92,24.52c-14.53,9.79-11.03,28.13-11.03,28.13
					c-13.78-5.72-7.7-25.07-6.16-35.88c0.31-2.19,0.65-5.92-1.99-3.64c-1.17,1-2.23,3.47-2.57,4.95c-2.19,9.49-4.2,20.96-1.12,30.46
					c0.94,2.91,2.54,5.66,4.91,7.59c4.94,4.01,12.89,3.18,18.86,3.16c2.8-0.01,20.24,0.78,20.83-3.55c0.51-3.7-8.14-4.13-11.18-4.17
					h-1.03c0,0,0.39-0.01,1.03,0h0.67c6.73-1.74,7.75-6.32,7.14-10.37c0.85,4.81,5.69,13,7.24,13.15
					c4.64,0.93,13.29-0.77,13.29-0.93C115.54,140.15,109.67,142.16,107.2,141.85z"/>
			</g>
			<g>
				<path class="st3" d="M94.99,132.26l-2.61-7.11c0.07,0.12,2.06,3.44,2.63,7.22C95,132.34,95,132.3,94.99,132.26z"/>
			</g>
		</g>
	</g>
	<g>
		<g>
			<path class="st3" d="M107.2,141.85c-0.33-0.04-0.63-0.18-0.91-0.36c-0.28-0.18-0.54-0.38-0.78-0.6
				c-0.48-0.45-0.91-0.95-1.32-1.47c-0.81-1.04-1.51-2.15-2.19-3.28c-0.67-1.13-1.31-2.28-1.92-3.44l-0.46-0.87
				c-0.15-0.29-0.32-0.58-0.44-0.88c-0.24-0.62-0.35-1.27-0.43-1.92c-0.14-1.31-0.25-2.62-0.29-3.94c-0.05-1.31-0.06-2.63-0.06-3.95
				c0-2.63,0.07-5.26,0.21-7.89c0.07-1.31,0.16-2.63,0.26-3.94c0.11-1.31,0.21-2.62,0.38-3.93c0.09-0.65,0.19-1.3,0.34-1.95
				c0.04-0.16,0.1-0.32,0.17-0.48c0.07-0.16,0.16-0.3,0.24-0.44l0.51-0.85c0.67-1.13,1.34-2.26,1.87-3.46
				c0.26-0.6,0.52-1.21,0.75-1.82c0.23-0.61,0.42-1.24,0.5-1.88c0.04-0.32,0.05-0.64,0.01-0.96c-0.01-0.08-0.02-0.16-0.04-0.23
				c-0.01-0.08-0.03-0.16-0.06-0.22l-0.04-0.11l-0.05-0.1c-0.03-0.07-0.07-0.14-0.12-0.2c-0.17-0.26-0.39-0.5-0.64-0.71
				c-0.24-0.22-0.49-0.42-0.76-0.61c-1.06-0.76-2.23-1.37-3.4-1.94c-1.18-0.57-2.39-1.09-3.61-1.55l0.06,0.01l0,0l-0.12,0
				l-0.04-0.12c-0.19-0.63-0.4-1.26-0.65-1.88c-0.24-0.61-0.51-1.23-0.81-1.81l0.31,0.03l-2.27,3.02l0.02-0.2l0.06,0.13l0.14,0.33
				l-0.36-0.06l-0.13-0.02l-0.33-0.05l0.2-0.27l0.08-0.1l-0.02,0.21c-0.14-0.31-0.29-0.61-0.45-0.91c-0.08-0.15-0.16-0.29-0.25-0.44
				c-0.04-0.07-0.09-0.14-0.13-0.21c-0.02-0.03-0.05-0.07-0.07-0.09l-0.03-0.04c0,0-0.01-0.01,0,0c0,0,0.01,0.01,0.02,0.01
				c0,0,0.01,0.01,0.02,0.01c0.01,0,0.02,0.01,0.04,0.01l0.02,0c0.01,0,0.03,0,0.05,0c0.04-0.01,0.07-0.03,0.1-0.05l0.01-0.01
				c-0.46,0.51-0.88,1.05-1.22,1.64c-0.34,0.59-0.6,1.22-0.81,1.88c-0.21,0.65-0.36,1.33-0.5,2.01c-0.08,0.35-0.11,0.65-0.12,1
				c0,0.34,0,0.69,0.01,1.04c0.05,1.39,0.1,2.8,0.05,4.21c-0.05,1.41-0.19,2.82-0.44,4.21c-0.5,2.78-1.54,5.49-3.11,7.86
				c-1.56,2.38-3.68,4.37-6.02,5.95c-0.29,0.21-0.59,0.38-0.89,0.57l-0.45,0.28c-0.15,0.09-0.28,0.2-0.42,0.3l-0.83,0.6
				c-0.27,0.21-0.53,0.43-0.8,0.65l-0.4,0.33c-0.13,0.11-0.25,0.23-0.38,0.35l-0.75,0.7l-0.71,0.75c-0.12,0.13-0.24,0.25-0.35,0.38
				l-0.33,0.39c-0.9,1.04-1.69,2.17-2.38,3.36c-0.36,0.59-0.66,1.2-0.98,1.81l-0.42,0.94c-0.15,0.31-0.26,0.64-0.39,0.95
				c-0.99,2.57-1.61,5.28-1.87,8.02c-0.13,1.37-0.18,2.75-0.15,4.13c0.01,0.69,0.05,1.38,0.11,2.06c0.06,0.68,0.14,1.38,0.25,2.03
				l0.16,0.9l-0.84-0.35c-1.45-0.61-2.84-1.43-4.04-2.48c-1.2-1.05-2.2-2.32-2.95-3.72c-0.75-1.4-1.26-2.91-1.6-4.44
				c-0.33-1.53-0.5-3.09-0.56-4.65c-0.11-3.11,0.2-6.2,0.62-9.25c0.43-3.05,1.03-6.07,1.57-9.07c0.13-0.75,0.26-1.5,0.38-2.25
				c0.12-0.75,0.22-1.5,0.27-2.23c0.02-0.37,0.03-0.73,0.01-1.08c-0.02-0.34-0.09-0.69-0.19-0.88c-0.01-0.02-0.02-0.04-0.04-0.05
				c-0.01-0.01-0.01-0.01-0.01-0.02c0,0-0.01,0-0.01-0.01c-0.01-0.02-0.02-0.01-0.03-0.02c-0.02-0.01-0.13,0-0.25,0.05
				c-0.25,0.1-0.54,0.32-0.8,0.54c-0.24,0.21-0.46,0.48-0.67,0.77c-0.2,0.29-0.39,0.6-0.57,0.93c-0.35,0.65-0.64,1.33-0.88,2.03
				c-0.12,0.35-0.22,0.69-0.3,1.05l-0.25,1.12c-0.17,0.74-0.33,1.49-0.49,2.24c-0.63,2.99-1.17,5.99-1.52,9.01
				c-0.1,0.75-0.16,1.51-0.23,2.27c-0.07,0.76-0.1,1.52-0.15,2.27c-0.02,0.76-0.05,1.52-0.05,2.28l0.01,1.14
				c0,0.19,0,0.38,0.01,0.57l0.03,0.57l0.06,1.13c0.03,0.38,0.07,0.75,0.11,1.13c0.04,0.38,0.07,0.75,0.13,1.13l0.17,1.12
				c0.03,0.19,0.06,0.37,0.09,0.56l0.12,0.55l0.24,1.11c0.09,0.37,0.2,0.73,0.3,1.09c0.11,0.36,0.19,0.73,0.32,1.08
				c0.48,1.42,1.11,2.79,1.93,4.04c0.81,1.25,1.81,2.38,2.98,3.29c1.17,0.9,2.54,1.55,3.97,1.99c1.43,0.45,2.93,0.7,4.44,0.84
				c3.02,0.29,6.08,0.16,9.15,0.13c0.77-0.01,1.54,0,2.31,0.02l2.29,0.04c1.53,0.02,3.06,0.01,4.58-0.03
				c1.53-0.04,3.05-0.13,4.57-0.28c1.51-0.16,3.03-0.37,4.49-0.77c0.73-0.2,1.44-0.46,2.07-0.84c0.63-0.37,1.16-0.93,1.16-1.64
				c0.01-0.35-0.07-0.69-0.25-1c-0.18-0.3-0.43-0.57-0.73-0.78c-0.59-0.44-1.29-0.73-2.01-0.97c-1.44-0.46-2.96-0.69-4.47-0.85
				c-1.52-0.15-3.04-0.22-4.58-0.21l0-0.25l1.7,0.01l-0.03,0c1.12-0.31,2.23-0.7,3.24-1.27c1.01-0.57,1.92-1.34,2.59-2.28
				c0.68-0.95,1.09-2.06,1.28-3.21c0.19-1.15,0.15-2.33-0.01-3.49l0.13-0.02c0.22,1.25,0.63,2.46,1.09,3.65
				c0.47,1.18,1,2.34,1.59,3.47c0.59,1.13,1.22,2.24,1.93,3.3c0.35,0.53,0.72,1.05,1.13,1.54c0.2,0.24,0.41,0.48,0.65,0.7
				c0.23,0.21,0.49,0.43,0.79,0.49l0,0c0.96,0.19,1.94,0.25,2.92,0.27c0.98,0.02,1.96-0.02,2.93-0.09c1.95-0.14,3.9-0.38,5.83-0.73
				c0.48-0.09,0.96-0.18,1.44-0.31c0.05-0.02,0.13-0.04,0.16-0.06l-0.01-0.18c0-0.12-0.01-0.24-0.03-0.36
				c-0.02-0.12-0.03-0.24-0.06-0.36l-0.04-0.18l-0.06-0.17c-0.08-0.23-0.21-0.44-0.35-0.64c-0.16-0.18-0.33-0.36-0.54-0.48
				c-0.41-0.27-0.89-0.41-1.37-0.49c-0.97-0.16-1.96-0.09-2.93-0.02c-0.49,0.04-0.98,0.08-1.46,0.11
				C108.17,141.88,107.68,141.9,107.2,141.85z M107.2,141.85c0.49,0.05,0.98,0.03,1.47,0c0.49-0.03,0.98-0.08,1.46-0.12
				c0.97-0.07,1.96-0.14,2.93,0.02c0.48,0.08,0.97,0.22,1.38,0.49c0.21,0.13,0.39,0.3,0.55,0.49c0.15,0.2,0.28,0.41,0.36,0.64
				l0.06,0.17l0.04,0.18c0.03,0.12,0.05,0.24,0.07,0.36c0.02,0.12,0.03,0.24,0.03,0.37l0.01,0.18c-0.06,0.05-0.12,0.05-0.18,0.07
				c-0.47,0.13-0.96,0.22-1.44,0.31c-1.93,0.35-3.87,0.6-5.83,0.74c-0.98,0.07-1.96,0.11-2.94,0.09c-0.98-0.02-1.96-0.08-2.93-0.27
				l0,0c-0.33-0.06-0.58-0.29-0.82-0.5c-0.24-0.22-0.45-0.46-0.66-0.7c-0.41-0.49-0.78-1.01-1.14-1.54
				c-0.71-1.06-1.35-2.16-1.95-3.29c-0.59-1.13-1.14-2.29-1.61-3.47c-0.47-1.19-0.89-2.4-1.12-3.66l0.13-0.02
				c0.17,1.16,0.21,2.36,0.03,3.53c-0.18,1.17-0.6,2.31-1.28,3.28c-0.69,0.97-1.6,1.77-2.63,2.36c-1.03,0.59-2.15,1-3.29,1.32
				l-0.01,0l-0.02,0l-1.7,0.01l0-0.25c1.53-0.02,3.07,0.03,4.6,0.17c1.53,0.15,3.06,0.36,4.55,0.83c0.74,0.23,1.47,0.53,2.12,1
				c0.32,0.23,0.62,0.53,0.83,0.88c0.22,0.35,0.33,0.78,0.31,1.2c0,0.41-0.15,0.85-0.41,1.17c-0.25,0.33-0.58,0.59-0.91,0.8
				c-0.68,0.42-1.42,0.69-2.17,0.9c-1.49,0.43-3.03,0.65-4.55,0.82c-1.53,0.17-3.07,0.26-4.6,0.32c-1.54,0.06-3.07,0.08-4.61,0.08
				l-2.3-0.02c-0.77-0.01-1.52-0.02-2.29,0c-3.05,0.06-6.13,0.22-9.22-0.05c-1.54-0.13-3.08-0.38-4.58-0.83
				c-1.5-0.45-2.95-1.12-4.22-2.08c-1.26-0.96-2.33-2.15-3.2-3.45c-0.87-1.31-1.55-2.74-2.06-4.21c-1.01-2.95-1.49-6.05-1.66-9.13
				l-0.04-0.58c-0.01-0.19-0.01-0.39-0.01-0.58l-0.02-1.16c-0.01-0.77,0.02-1.55,0.04-2.32c0.05-0.77,0.07-1.54,0.14-2.31
				c0.07-0.77,0.12-1.54,0.22-2.3c0.34-3.06,0.87-6.1,1.49-9.11c0.16-0.75,0.32-1.5,0.49-2.25l0.25-1.12
				c0.08-0.38,0.2-0.78,0.33-1.16c0.26-0.75,0.57-1.48,0.94-2.19c0.19-0.35,0.4-0.7,0.63-1.03c0.23-0.34,0.5-0.66,0.83-0.96
				c0.16-0.14,0.32-0.27,0.5-0.39c0.09-0.06,0.19-0.12,0.28-0.18c0.11-0.05,0.2-0.11,0.32-0.16c0.23-0.09,0.51-0.18,0.87-0.11
				c0.17,0.04,0.35,0.12,0.48,0.23c0.03,0.03,0.07,0.06,0.1,0.08l0.08,0.09c0.05,0.06,0.09,0.12,0.13,0.18
				c0.14,0.25,0.21,0.48,0.25,0.7c0.05,0.22,0.07,0.43,0.08,0.64c0.03,0.42,0.02,0.82-0.01,1.22c-0.05,0.79-0.15,1.57-0.27,2.33
				c-0.11,0.76-0.24,1.52-0.38,2.28c-0.53,3.03-1.12,6.03-1.56,9.04c-0.43,3.01-0.73,6.05-0.63,9.06c0.05,1.51,0.21,3.01,0.53,4.46
				c0.32,1.46,0.79,2.88,1.49,4.18c0.69,1.3,1.61,2.48,2.71,3.45c1.1,0.97,2.38,1.74,3.75,2.33l-0.68,0.55
				c-0.12-0.73-0.2-1.42-0.26-2.13c-0.06-0.71-0.09-1.42-0.1-2.12c-0.03-1.42,0.03-2.83,0.18-4.24c0.29-2.82,0.92-5.61,1.98-8.25
				c0.14-0.33,0.26-0.66,0.41-0.98l0.45-0.97c0.33-0.63,0.65-1.26,1.03-1.87c0.73-1.22,1.56-2.38,2.5-3.45l0.35-0.4
				c0.12-0.13,0.25-0.26,0.37-0.39l0.74-0.76l0.79-0.72c0.13-0.12,0.26-0.24,0.4-0.35l0.41-0.33c0.28-0.22,0.55-0.45,0.83-0.66
				l0.87-0.62c0.15-0.1,0.29-0.21,0.44-0.3l0.45-0.27c0.29-0.18,0.6-0.35,0.88-0.55c2.29-1.52,4.35-3.42,5.88-5.71
				c1.54-2.28,2.57-4.89,3.09-7.6c0.26-1.36,0.41-2.74,0.47-4.12c0.06-1.39,0.03-2.77-0.01-4.18c-0.01-0.35-0.01-0.7,0-1.06
				c0-0.09,0.01-0.18,0.01-0.27c0-0.09,0.01-0.18,0.03-0.28c0.02-0.2,0.06-0.36,0.1-0.53c0.14-0.69,0.31-1.38,0.53-2.05
				c0.22-0.68,0.5-1.34,0.87-1.96c0.36-0.62,0.81-1.19,1.29-1.71l0.01-0.01l0.01-0.01c0.03-0.02,0.07-0.04,0.11-0.05
				c0.02,0,0.04,0,0.06,0l0.02,0c0.03,0,0.07,0.02,0.07,0.03c0.02,0.01,0.04,0.03,0.05,0.03c0.02,0.02,0.03,0.03,0.04,0.04
				c0.02,0.02,0.04,0.04,0.05,0.06c0.03,0.04,0.06,0.08,0.08,0.12c0.05,0.08,0.1,0.15,0.14,0.23c0.09,0.15,0.17,0.3,0.26,0.46
				c0.16,0.31,0.31,0.62,0.45,0.94l0.05,0.11l-0.07,0.09l-0.08,0.1l-0.13-0.32l0.13,0.02l-0.22,0.27l-0.05-0.12l-0.05-0.11
				l0.07-0.09l2.3-3l0.18-0.23l0.13,0.26c0.3,0.61,0.56,1.22,0.8,1.85c0.24,0.63,0.45,1.26,0.64,1.91l-0.16-0.12l0,0l0.03,0
				l0.03,0.01c1.23,0.48,2.44,1.02,3.62,1.6c1.18,0.59,2.35,1.22,3.42,2c0.27,0.2,0.53,0.4,0.77,0.63c0.25,0.23,0.48,0.48,0.67,0.76
				c0.05,0.07,0.09,0.15,0.13,0.22l0.06,0.12l0.04,0.13c0.03,0.08,0.05,0.17,0.06,0.25c0.02,0.08,0.03,0.17,0.04,0.25
				c0.04,0.34,0.02,0.68-0.02,1.01c-0.09,0.67-0.29,1.3-0.53,1.92c-0.24,0.62-0.5,1.22-0.77,1.82c-0.55,1.2-1.22,2.34-1.9,3.47
				l-0.51,0.84c-0.08,0.14-0.17,0.28-0.24,0.42c-0.07,0.14-0.12,0.3-0.16,0.45c-0.16,0.63-0.26,1.28-0.35,1.93
				c-0.18,1.3-0.28,2.61-0.4,3.92c-0.11,1.31-0.21,2.62-0.29,3.93c-0.16,2.62-0.24,5.25-0.26,7.88c0,1.31,0,2.63,0.05,3.94
				c0.04,1.31,0.15,2.63,0.29,3.93c0.08,0.65,0.19,1.3,0.42,1.92c0.12,0.31,0.29,0.59,0.44,0.88l0.46,0.87
				c0.62,1.16,1.25,2.32,1.92,3.45c0.67,1.13,1.38,2.24,2.18,3.29c0.4,0.52,0.83,1.02,1.31,1.47c0.24,0.22,0.5,0.43,0.78,0.6
				C106.56,141.66,106.87,141.8,107.2,141.85z"/>
		</g>
		<g>
			<path class="st3" d="M94.99,132.26c-0.22-0.59-0.46-1.18-0.72-1.76c-0.26-0.58-0.54-1.15-0.83-1.72l-0.43-0.85l-0.41-0.86
				c-0.26-0.57-0.51-1.15-0.72-1.74l-1.84-4.95l2.8,4.48c0.1,0.16,0.17,0.3,0.25,0.44c0.08,0.15,0.15,0.29,0.22,0.44
				c0.14,0.3,0.27,0.6,0.39,0.91c0.23,0.62,0.42,1.25,0.58,1.88c0.08,0.32,0.15,0.64,0.22,0.96c0.07,0.32,0.13,0.64,0.19,0.96
				c0.12,0.64,0.22,1.27,0.33,1.91l0,0L94.99,132.26z M94.99,132.26l0.02,0.12l0,0c-0.11-0.63-0.26-1.26-0.48-1.87
				c-0.11-0.3-0.23-0.6-0.36-0.89c-0.13-0.29-0.27-0.58-0.42-0.87c-0.29-0.57-0.6-1.13-0.91-1.68l-0.46-0.83
				c-0.15-0.27-0.31-0.56-0.46-0.81l0.96-0.47c0.22,0.6,0.41,1.2,0.58,1.81l0.24,0.92l0.23,0.92c0.15,0.62,0.3,1.23,0.47,1.83
				C94.58,131.07,94.77,131.67,94.99,132.26z"/>
		</g>
	</g>
	<path class="st2" d="M65.42,71.4c-2.76,0-5.31-1.09-7.36-3.15c-3.63-3.64-5.53-10.2-5.51-18.99c0.04-7.71,1.8-15.67,4.6-20.78
		c3.09-5.73,6.91-6.93,9.57-6.93h0c1.1,0,2.23,0.21,3.34,0.62l0.08,0.03c7.84,3.09,14.26,14.47,14.61,25.91l0,0.08
		c0.14,10.35-5.16,18.43-14.55,22.15C68.61,71.04,67,71.4,65.42,71.4z M66.72,26.65c-1.85,0-3.56,1.43-5.08,4.25
		c-2.39,4.36-3.95,11.57-3.98,18.37c-0.02,7.29,1.41,12.75,4.02,15.37c1.78,1.78,4.04,2.11,6.51,0.99l0.07-0.03
		c3.48-1.36,11.55-5.79,11.38-17.37C79.33,37.74,73.49,29,68.26,26.94C67.75,26.75,67.22,26.65,66.72,26.65L66.72,26.65z"/>
</g>
</svg>
